<?xml version="1.0" encoding="utf-8"?>

<!DOCTYPE svg PUBLIC "-//W3C//DTD SVG 1.1//EN" "http://www.w3.org/Graphics/SVG/1.1/DTD/svg11.dtd">
<svg version="1.1" id="Layer_1" xmlns="http://www.w3.org/2000/svg" xmlns:xlink="http://www.w3.org/1999/xlink" x="0px" y="0px"
	 viewBox="0 0 2191.1545 1639.4172" enable-background="new 0 0 2191.1545 1639.4172" xml:space="preserve">
<g>
	<path d="M121.9194,1639.4172c-14.3426-12.1641-28.655-24.3638-43.0403-36.4769c-7.2967-6.144-14.3675-12.5084-21.0624-19.3165
		c-10.556-10.7345-14.6406-10.5872-23.9347,1.0404c-8.201,10.2601-17.1717,19.7922-26.3919,29.1122
		c-1.1726,1.1853-2.317,2.4196-3.6159,3.4536c-1.7497,1.3927-3.2397,0.9911-3.5429-1.2855
		c-0.3126-2.3473-0.2478-4.7522-0.2485-7.1321c-0.0121-40.99-0.0089-81.9802-0.0089-122.9702
		c0-431.1102,0.0081-862.2205-0.074-1293.3308c-0.0013-6.6702,1.4632-12.0622,5.6105-17.7022
		c17.8916-24.3307,40.2651-43.6773,64.6567-61.0648c34.2001-24.3794,71.3642-42.8786,110.8568-56.9039
		c21.8777-7.7696,44.4566-12.2271,67.4883-14.7416c12.0658-1.3173,24.1294-2.8837,36.2682-2.6601
		c9.9738,0.1837,19.9263,1.3305,29.899,1.8395c6.6534,0.3396,13.3258,0.4188,19.9896,0.4157
		c8.16-0.0038,16.0309,1.0929,23.8512,3.7203c8.5945,2.8875,17.6595,4.2815,26.7384,3.85
		c17.0911-0.8122,33.6499,2.6565,50.2482,5.6934c9.8105,1.795,17.204,7.9234,23.3446,15.498
		c4.9453,6.1002,9.751,12.3224,14.3939,18.6552c2.3305,3.1788,5.0915,5.5166,8.6669,7.1689
		c21.9058,10.1236,42.3302,22.6972,61.5573,37.2715c4.7371,3.5908,9.8137,6.7366,14.7634,10.0433
		c6.7549,4.5126,10.0264,10.3885,8.3597,18.7957c-0.9314,4.6984-1.9323,9.3317-3.814,13.7193
		c-2.1219,4.9477-1.9408,9.5174,0.7669,14.3159c14.3224,25.3817,24.4339,52.6289,35.001,79.6715
		c4.8517,12.4159,9.7905,24.7978,14.7053,37.189c2.8834,7.2698,3.6318,15.304,8.0179,22.0515
		c1.0495,1.6144,0.958,3.6759,0.8657,5.5862c-0.1938,4.0092-0.6815,7.9876-0.6352,12.0302
		c0.0351,3.0739-1.0142,5.9372-3.3215,8.4081c-2.5613,2.7429-2.6476,9.1668-0.5652,11.8088
		c1.3781,1.7484,2.9431,0.778,4.4512,0.0656c1.6228-0.7665,3.1142-3.6129,4.6949-2.2012c2.0352,1.8178-0.3796,3.9323-1.6,5.3947
		c-9.2885,11.1303-5.934,10.8584-1.7777,21.0661c4.964,12.1912,12.8834,22.7438,19.9867,33.7491
		c13.8095,21.3955,29.3705,41.6643,41.0729,64.4272c4.2296,8.2271,6.9247,16.8764,7.418,25.8949
		c0.6038,11.0353-5.481,18.8997-14.7485,24.3085c-4.1525,2.4235-8.7792,3.591-13.5915,4.0579
		c-3.5502,0.3446-7.1021,0.7888-10.61,1.4263c-5.0748,0.9223-6.0977,2.4172-6.4381,7.7338
		c-0.366,5.7177,1.391,10.7872,4.2197,15.602c3.0151,5.1321,6.1681,10.1887,9.0237,15.4079
		c6.0948,11.1392,1.0754,23.6445-11.0814,27.2098c-3.3854,0.9929-4.6597,2.4941-4.5071,5.9667
		c0.2193,4.9934,0.0463,10.0064-0.0408,15.0096c-0.033,1.8964-0.0152,3.8645-0.5074,5.6669
		c-0.9621,3.5228-3.6183,4.8834-6.4185,2.7455c-2.9569-2.2576-5.2906-2.2657-8.3016-0.5412
		c-2.5009,1.4324-5.2742,0.7488-7.5217-0.6353c-4.3461-2.6765-8.3078-3.0502-12.4688,0.3726
		c-1.2025,0.9892-3.086,1.7149-4.6123,1.6404c-4.6453-0.227-6.0908,2.2302-6.7474,6.3198
		c-1.2064,7.5148-3.0307,14.9119-4.7742,22.3277c-2.063,8.775,0.7739,17.0967,4.2095,24.9592
		c5.5441,12.6876,12.6283,24.5525,21.2538,35.4332c4.6298,5.8403,8.3445,12.1416,10.5685,19.2982
		c0.6472,2.0824,1.3436,4.2433,0.8894,6.3088c-2.5991,11.8196-4.2382,24.3229-15.4637,31.7606
		c-8.2318,5.4542-9.7052,13.0585-8.3664,21.8278c0.5714,3.7426,1.8543,7.3746,2.7839,11.0645
		c3.7429,14.8557,2.8687,29.062-4.7111,42.8221c-10.4185,18.9135-30.4956,23.8929-46.1299,21.4564
		c-9.8759-1.5392-19.453-4.6243-29.4167-5.7464c-4.9619-0.5588-9.8984-1.3582-14.8665-1.8423
		c-15.3712-1.4985-28.8731-7.5106-40.8914-16.9744c-6.7921-5.3484-14.5398-6.6852-22.8353-6.2461
		c-3.2076,0.1697-5.0723,2.4468-6.8517,4.6762c-7.1611,8.972-13.457,18.5487-18.0433,29.0645
		c-5.334,12.23-12.7489,22.6656-22.7928,31.5486c-10.6031,9.3774-18.7058,20.949-25.8209,33.1361
		c-7.4958,12.8394-16.3198,24.501-27.3609,34.5917c-10.8983,9.9601-20.8978,20.9134-31.9164,30.7297
		c-12.9808,11.5641-27.1301,21.7018-41.8342,31.0169c-1.6086,1.019-3.3189,1.8772-4.9328,2.8887
		c-5.7283,3.5898-5.7139,4.298-2.0801,9.8696c5.4393,8.3401,12.3338,15.7877,15.484,25.554
		c2.1561,6.6844,3.3638,13.4954,2.083,20.384c-0.7794,4.1918,0.3256,8.0469,0.7294,12.0134
		c0.3708,3.6429,3.1192,4.8126,6.6201,5.1608c6.5667,0.6533,10.8477,4.5565,13.1926,10.5685c1.83,4.692,0.8706,7.137-3.7759,9.1326
		c-2.8243,1.2129-5.9063,1.8148-8.8468,2.7706c-4.7567,1.5459-5.9083,4.0549-3.9366,8.6544c1.2754,2.975,3.6826,4.9773,6.363,6.5776
		c9.3077,5.5576,14.0077,14.6949,18.589,23.8837c2.0701,4.152,2.3166,8.7397,1.9306,13.2941
		c-0.89,10.4998,1.0829,20.1353,6.5392,29.3984c7.364,12.502,14.651,25.1714,18.615,39.2905
		c2.2457,7.9988,3.787,16.1967,6.7704,23.9883c0.936,2.4445,1.9371,4.8647,2.9517,7.278c1.4562,3.4636,4.1544,5.0682,7.8483,5.127
		c0.7148,0.0114,1.4299,0.0114,2.1446,0.0286c11.4127,0.2759,11.4784,0.2509,15.6385,11.0199
		c1.789,4.631,4.9425,7.4592,9.7451,8.5114c2.5549,0.5597,5.1282,1.0402,7.6725,1.6436
		c8.2174,1.9491,13.9629,6.7616,17.2859,14.6058c1.7614,4.1581,3.7994,8.2195,5.9893,12.1713
		c4.902,8.8468,8.2186,18.0209,8.9236,28.3088c0.699,10.2008,4.8077,19.6096,11.5661,27.1792
		c15.5888,17.46,29.0581,36.4768,42.795,55.3507c10.7118,14.7175,24.0143,26.9551,39.2917,37.0696
		c13.0911,8.6672,26.3591,17.1852,36.9635,29.0741c3.6703,4.1149,6.9149,8.4384,9.3059,13.4479
		c2.3581,4.9408,5.0991,9.6857,8.3906,14.0994c3.7001,4.962,7.2892,9.9705,9.8082,15.7172
		c2.4736,5.6432,7.3771,9.2562,12.0913,12.8942c7.9185,6.1107,15.731,12.3331,23.0447,19.175
		c4.9614,4.6412,9.0803,9.8114,10.7649,16.5023c1.4874,5.9078,5.6637,11.1377,4.5037,17.713
		C464.1779,1639.4172,293.0486,1639.4172,121.9194,1639.4172z"/>
	<path d="M671.0584,1639.4172c-0.065-4.3823,3.4367-5.9924,6.3502-7.9215c6.5726-4.3525,13.8422-7.4077,20.8716-10.9087
		c3.411-1.6989,6.8218-3.4016,10.1844-5.1934c7.0801-3.7729,7.6942-5.0776,4.7962-12.2885
		c-1.9214-4.7813-2.2233-9.7421-2.356-14.7249c-0.1718-6.448-1.2528-12.7649-2.0281-19.1387
		c-1.1917-9.7959-1.005-19.5542,4.765-28.2365c1.265-1.9034,1.446-3.9729,1.6498-6.109c0.8361-8.7618,4.1643-16.11,12.0717-20.7325
		c2.3001-1.3446,3.3912-3.2827,3.4346-5.8357c0.1322-7.7831,4.0556-12.8635,10.9668-16.0895
		c3.2498-1.517,5.9173-3.7644,7.6935-7.1394c3.1179-5.9241,7.5472-10.3647,14.6539-11.2727
		c3.9468-0.5042,5.6302-2.9119,5.7847-6.8556c0.266-6.7896,0.3777-6.7729,6.8757-8.0758c0.8177-0.1641,2.1248,0.3717,2.2449-1.0499
		c0.0999-1.1826-1.05-1.3873-1.8702-1.7385c-3.5817-1.5339-6.6401-3.7207-8.8672-6.9719
		c-4.1776-6.0983-3.0964-11.7954,2.9962-15.9843c2.6699-1.8358,7.2741-2.3949,7.4548-5.8568
		c0.1512-2.8965-4.1298-4.1669-6.2759-6.3425c-6.4431-6.5322-6.6876-13.8932,0.401-19.8033
		c4.032-3.3617,4.7259-6.5564,3.2598-11.1448c-1.2439-3.8928-1.5168-8.0261-0.576-12.0178
		c0.6438-2.7317-0.1545-4.5735-2.0766-6.3126c-1.054-0.9535-2.0439-2.0255-2.8596-3.1866
		c-3.6133-5.1451-3.1393-10.308,1.3747-14.7684c1.5211-1.5028,3.254-2.7891,4.848-4.2212c1.3331-1.1979,4.205-1.5697,3.5499-3.835
		c-0.5131-1.7736-3.0312-1.9647-4.8598-2.4957c-1.5966-0.4635-3.2225-0.9524-4.6901-1.7112
		c-7.1445-3.6941-8.4903-10.9763-3.2287-17.0668c3.0778-3.5629,3.1752-3.6646-0.6038-7.2837
		c-4.2736-4.0929-6.7448-8.5448-4.4982-14.6335c1.1307-3.0647,3.0243-5.3464,5.7992-6.9775
		c1.4353-0.8436,2.9133-1.6345,4.2599-2.6046c2.3444-1.6885,3.074-3.9156,0.5709-5.8401c-7.1476-5.4949-7.5494-12.7603-5.7-20.6097
		c0.6025-2.557-0.728-3.968-2.1422-5.6356c-6.705-7.9065-6.4429-14.3541,0.7229-21.9194c2.256-2.3817,6.2501-4.0959,6.0391-7.5596
		c-0.2203-3.616-4.7545-4.1241-7.2903-6.1215c-5.4018-4.2544-7.2719-14.6257-3.5746-20.7283
		c0.6132-1.0121,1.4285-1.9019,2.1533-2.8461c4.3234-5.6329,4.4563-5.7131,0.8188-11.7003
		c-2.4527-4.0369-2.7138-8.5826-3.6877-12.9657c-0.3737-1.6818,0.4271-3.3125,1.472-4.6509c1.4594-1.8689,2.9349-3.7516,4.61-5.4213
		c5.3807-5.3629,5.0413-5.1163,1.312-11.8003c-3.7816-6.7776-4.3243-14.2307,0.2948-20.8469
		c2.3658-3.3888,2.6005-5.4529-0.2623-8.4266c-3.1351-3.257-3.311-7.7845-3.8922-12.0206c-0.314-2.2894,0.7086-4.189,2.2724-5.7831
		c1.1666-1.1891,2.4706-2.245,3.6168-3.452c3.8777-4.0845,3.8607-4.3729,0.6452-8.9458
		c-7.2171-10.2637-5.4759-19.2506,3.979-25.8293c0.7814-0.5436,1.6539-0.9648,2.3975-1.5524
		c2.9728-2.3486,2.9148-3.1942-0.2672-5.022c-2.8862-1.6577-5.9385-3.0857-8.6195-5.0266
		c-3.8019-2.7524-6.6728-6.2858-5.767-11.4386c0.9496-5.401,4.7875-8.0342,9.7477-9.2103
		c7.6515-1.8141,15.3624-3.3204,23.2775-3.3479c2.4014-0.0083,6.4707-0.239,6.3849-1.7371
		c-0.1646-2.8715-3.7251-1.7583-5.9071-1.9515c-9.8687-0.8739-19.1918-3.2949-27.65-8.7156
		c-3.7934-2.4314-5.8135-5.6356-5.4163-10.079c0.3079-3.4453,3.9918-6.4624,8.5563-7.4438c0.4631-0.0995,0.959-0.0515,1.419-0.1599
		c7.1107-1.6756,7.267-2.2053,2.6269-7.0382c-1.6321-1.6999-2.9429-3.7361-4.2381-5.7243c-1.336-2.0508-2.2864-4.5145-1.4354-6.7976
		c1.736-4.657,3.8411-9.1909,6.0431-13.6526c0.8886-1.8006,2.9779-2.2038,4.8702-2.6475
		c7.5784-1.7767,14.6119-0.1727,21.3663,3.3196c4.8632,2.5145,9.7263,5.0305,14.6188,7.4871
		c1.2714,0.6383,2.7302,1.206,3.9667,0.0056c1.1977-1.1628,0.7997-2.6838,0.3448-4.0215
		c-2.6253-7.7197-6.9338-14.615-10.7972-21.7221c-3.9805-7.3226-8.4747-14.3448-12.4089-21.7094
		c-6.4639-12.1005-10.1505-25.1232-13.7636-38.2094c-0.7565-2.7399-1.0367-6.0198-5.4239-3.4065
		c-1.7075,1.017-3.2293-0.3532-3.8347-2.1177c-1.6199-4.7216-3.7751-9.189-5.9097-13.6917
		c-1.4783-3.1181-0.7404-3.8445,3.3022-4.0524c1.5463-0.0795,1.9333-0.9067,2.3669-2.0779c1.135-3.0671,0.0374-5.6033-1.8311-7.9183
		c-2.1498-2.6637-2.7418-5.3367-1.054-8.5566c2.6194-4.9975,0.3654-10.3082,0.6313-15.4688
		c0.0116-0.2238-0.0783-0.4907-0.208-0.6768c-0.4014-0.5757-0.8516-1.6124-1.2711-1.6067
		c-6.5354,0.0891-5.7745-8.6194-11.9913-9.5097c-6.8118-0.9755-9.2815-4.1849-10.0755-11.0027
		c-2.0917-17.9613-4.0299-35.9406-6.002-53.9156c-1.6086-14.6622-3.185-29.3281-4.76-43.994
		c-0.427-3.9753-2.0394-7.3827-5.252-9.7488c-5.6328-4.1489-7.8491-9.8444-8.3704-16.5732
		c-1.0289-13.2805-2.2066-26.5496-3.3433-39.8217c-1.1974-13.9808-2.7696-27.9409-3.5169-41.9453
		c-0.5831-10.926-2.1138-21.8082-1.7615-32.782c0.244-7.5997,1.6503-9.3271,8.8829-11.7546
		c14.666-4.9224,29.3964-9.5746,44.6909-12.2021c4.9531-0.851,9.9394-1.0407,14.936-1.157
		c5.4673-0.1273,10.9165-0.3192,16.3843-0.7039c8.0328-0.5651,16.076-0.3979,22.9692,5.3394
		c3.1414,2.6145,7.6877,2.4371,11.6067,1.9113c3.389-0.4547,6.0511-2.3472,5.9914-6.7054
		c-0.0519-3.7789,0.6037-7.5777,1.0787-11.351c0.7344-5.8328,2.4455-11.1711,7.7466-14.6324
		c1.9777-1.2913,2.3019-3.0995,2.1965-5.5377c-0.5016-11.6017-2.4464-23.1652-1.1249-34.8255
		c0.1604-1.4167,0.1078-2.8609,0.3183-4.2678c0.269-1.7984,1.2967-3.0768,3.1417-3.4512c1.9119-0.388,3.2429,0.561,4.0481,2.1946
		c2.9703,6.026,7.4052,11.2733,6.9706,18.8656c-0.3629,6.3411,0.9616,12.7796,1.5486,19.1741
		c0.5203,5.6664,0.5805,5.9019,6.509,5.7953c6.8721-0.1235,13.8425,1.0067,20.5844-1.2614
		c0.8409-0.2828,1.9904-0.2381,2.0991-1.5158c0.0961-1.1288-0.7502-1.6602-1.5507-2.156c-1.0099-0.6255-2.131-1.0914-3.0776-1.796
		c-6.4852-4.8279-5.9514-10.5884,1.2808-14.4634c4.1284-2.2119,8.7829-2.1177,13.1997-2.8694
		c13.8373-2.3553,27.582-5.3271,41.5897-6.6286c2.3669-0.2199,4.7145-0.902,7.0733-0.9145
		c22.3787-0.1185,44.7028-2.3717,67.0996-1.7072c0.7146,0.0212,1.4296,0.0277,2.1445,0.0348
		c2.6954,0.0268,5.6501,0.354,7.0291,2.6942c1.546,2.6236-1.3918,4.1401-2.7556,5.955c-3.0137,4.0108-2.6215,5.2454,2.3224,5.5603
		c4.3517,0.2773,7.95,1.4139,10.0653,5.5155c1.5863,3.0757,4.3551,3.4794,7.3285,3.0846
		c20.5305-2.7262,41.2504-3.1413,61.8646-4.808c16.8179-1.3598,33.6632-2.7675,50.5295-3.7259
		c17.8011-1.0114,35.571-2.5726,53.3563-3.8683c28.2292-2.0564,56.4888-3.762,84.6823-6.2254
		c30.3126-2.6487,60.6711-4.7408,90.9482-7.8578c23.4152-2.4106,46.9343-3.7967,70.3699-6.0309
		c30.7826-2.9346,61.5847-5.885,92.053-11.3109c25.7751-4.5902,51.2203-10.7238,76.6807-16.843
		c23.8445-5.7308,47.5333-11.9374,71.0829-18.7455c13.9971-4.0465,27.3579-9.7346,40.6742-15.5013
		c14.2018-6.1501,28.2676-12.627,42.262-19.2383c6.2311-2.9438,12.2426-6.3961,18.1713-9.9246
		c6.9889-4.1595,8.0914-8.3242,4.1672-15.2664c-3.0457-5.3879-6.4103-10.5953-9.6326-15.8833
		c-2.3606-3.8735-4.5819-7.8151-5.7535-12.2443c-1.4111-5.3335,1.3333-10.601,6.4601-12.6407
		c2.5426-1.0116,4.6515-0.1831,6.6754,1.2539c2.1987,1.561,3.6003,3.7972,4.9001,6.0735
		c3.7799,6.6182,7.4913,13.2754,11.2461,19.9079c1.2903,2.2796,2.449,4.6648,3.9954,6.7599
		c1.6144,2.1871,3.8625,3.7808,6.7606,2.5574c5.0006-2.111,10.4003-3.2021,14.887-6.6385
		c14.7236-11.2765,29.7808-22.1252,44.3357-33.6122c11.4242-9.0161,22.4268-18.5551,33.1298-28.4136
		c7.6118-7.0113,17.9816-12.9319,19.3285-24.1448c1.8873-15.7112,2.4745-30.9735,5.8567-46.7313
		c1.2391-5.7732,2.5186-17.0312,10.3428-17.3232c3.2633-0.1218,6.3651,1.6604,8.5863,4.0543
		c4.9484,5.3333,9.5979,14.001,11.6082,20.9546c4.9231,17.0297,6.4961,35.7079,9.5798,53.1807
		c5.2305,28.767,10.2476,57.4044,13.6475,86.3232c2.1914,18.6371,5.104,37.1881,7.498,55.8037
		c13.8175,107.4496,23.1323,215.8998,28.9581,324.0703c1.9639,36.4845,3.4608,72.994,4.4868,109.517
		c0.5129,18.2614,0.9086,36.5262,1.1865,54.7927c0.2625,17.2452-1.6182,35.3382-2.4113,52.6998
		c-0.5402,11.8243-3.332,45.9852-20.4337,45.6221c-5.4604-0.1158-7.134-4.899-8.975-9.0256
		c-2.832-6.3477-4.2225-13.1206-5.671-19.8781c-2.396-11.1806-5.4408-22.1704-9.6044-32.8465
		c-1.6028-4.1091-3.9747-7.4006-7.3873-10.2557c-20.619-17.2504-43.7729-30.4052-67.8455-42.0182
		c-27.2335-13.1377-54.9127-25.2922-83.4427-35.3624c-12.9973-4.5877-26.1805-8.6222-39.4971-12.2927
		c-17.6898-4.8761-35.4927-9.0441-53.59-12.0115c-12.4346-2.0389-24.9395-3.4664-37.4517-4.9467
		c-52.7959-6.246-106.9268-3.8389-159.9858-2.8561c-55.3185,1.0246-110.6144,3.2739-165.8333,6.7466
		c-12.8673,0.8092-25.6169,0.7908-38.53,0.7908c-8.038,0.0139-16.1429,0.8281-24.2152,1.3116
		c-4.5308,0.2715-8.1508,1.6701-11.2402,5.8835c-6.1302,8.3599-15.0967,13.7318-23.7081,19.2829
		c-4.8298,3.1134-9.3004,6.6255-13.4806,10.5338c-1.4132,1.3212-2.8077,2.7104-1.4979,4.9128
		c1.2759,2.1453,2.6743,4.0248,5.6324,3.2268c5.5121-1.4868,11.0725-2.8148,16.5272-4.4878
		c5.496-1.6858,10.984-2.8172,16.7942-2.9744c7.553-0.2043,13.5017,2.7742,18.2958,8.1326
		c8.6619,9.6813,15.2463,20.6315,19.4127,33.0214c1.5072,4.482,1.5631,8.6299,0.1217,13.2044
		c-3.8596,12.2503-3.7498,13.1215,8.5952,14.0991c13.4437,1.0645,26.4371,17.6576,28.0375,29.8016
		c0.4254,3.2286-0.8082,6.0703-1.9342,8.964c-1.4662,3.7684-3.027,7.5167-4.1923,11.3807
		c-0.9667,3.2058,0.1531,5.5366,3.7417,6.4047c2.7671,0.6692,5.526,1.4801,8.1718,2.5242
		c12.5674,4.9601,18.8934,17.4418,15.5657,30.6495c-1.4133,5.6089-3.8035,10.7241-7.6694,15.1486
		c-3.1315,3.5836-6.1355,7.2988-8.9307,11.1482c-1.671,2.3011-0.9264,3.3448,2.0183,3.2538
		c1.4213-0.0439,2.8416-0.2992,4.2509-0.5286c19.5818-3.1869,32.3943,9.9773,28.8461,29.6486
		c-1.2158,6.741-4.0277,12.6494-8.8923,17.5688c-6.697,6.7727-13.1521,13.7936-20.0223,20.3833
		c-2.8572,2.7405-10.7955,13.2051-5.7052,17.0944c3.2554,2.4873,6.7854-2.1658,9.6493-2.5311
		c4.9977-0.6378,10.2963,2.7284,14.3744,5.5267c4.6362,3.1812,8.3419,8.2537,8.4139,13.8757
		c0.0659,5.1428-2.8171,9.813-5.733,14.0498c-13.4025,19.4739-25.4366,42.2192-42.9071,58.4154
		c-8.8113,8.1686-20.6375,14.8756-31.2482,20.4634c-3.6031,1.8975-7.2869,3.5562-11.2419,4.5167
		c-6.3085,1.5322-11.66,0.3417-15.939-5.063c-4.0083-5.0629-5.8099-5.4073-11.4833-2.7245
		c-6.6978,3.1672-12.7836,7.4192-18.7998,11.6779c-27.4441,19.4266-52.7574,41.5371-78.9049,62.6077
		c-22.004,17.7316-37.4492,40.3192-52.0771,63.8743c-12.818,20.6403-26.2347,40.9077-39.2552,61.4233
		c-25.3998,40.0204-51.0519,79.8871-75.9049,120.2451c-11.9982,19.4838-24.7099,38.4618-37.2939,57.543
		c-0.5124,0.7767-0.8136,1.6931-1.2132,2.5443C888.426,1639.4172,779.7422,1639.4172,671.0584,1639.4172z M866.6617,1447.1385
		c0.1195,0,0.2391,0.0001,0.3586,0.0001c0-2.8574,0.1466-5.7239-0.0276-8.5707c-0.4996-8.1597,0.82-16.0736,2.3029-24.077
		c2.3052-12.4417,13.8074-20.4927,27.1758-17.9529c2.332,0.443,4.5865,1.2784,6.9031,1.8202
		c3.8105,0.8914,4.6645,0.2516,4.8796-3.5435c0.1479-2.6122,0.0278-5.2573,0.3913-7.8364
		c1.5198-10.7821,9.8418-16.053,20.1934-12.6615c3.1373,1.0278,6.0952,2.6847,9.0115,4.2795
		c2.189,1.1971,3.6188,1.6128,3.3186-1.6963c-0.3915-4.3174,0.5359-8.5187,1.0065-12.7701
		c1.2181-11.0021,9.3713-17.3801,20.2385-15.6321c2.1138,0.3401,4.355,0.4055,6.2964,1.1924
		c4.1409,1.6786,6.7044,0.2627,8.8475-3.3273c5.382-9.0161,12.953-16.3674,19.6976-24.2458
		c13.1632-15.3762,25.132-31.6442,37.1044-47.8706c10.3785-14.066,19.6707-28.8926,31.7019-41.739
		c6.1747-6.5933,11.6011-13.8882,17.3524-20.8767c6.1124-7.4271,10.6068-15.8884,13.4349-24.9291
		c4.4138-14.11,6.3245-28.7679,7.2184-43.5344c0.9774-16.1494,2.4407-32.2532,5.2557-48.1974
		c1.696-9.6073,2.8644-19.2329,3.5243-28.9882c0.8018-11.8534,3.1334-23.6035,3.929-35.457
		c0.7401-11.0294,2.8768-21.2584,10.9268-29.3457c4.7698-4.7919,6.431-12.0515,12.8197-15.5945
		c1.5593-0.8647,2.2496-3.0206,1.4005-5.1134c-5.2604-12.9673-9.1445-17.9702-22.959-15.5317
		c-8.1766,1.4434-16.5294,2.1838-24.8329,2.5333c-9.2834,0.3906-14.9478-5.3011-15.3479-14.4313
		c-0.0522-1.19,0.0308-2.3894-0.0764-3.5729c-0.6012-6.636-1.4136-13.2421-2.7874-19.7722
		c-0.4485-2.1318-1.6508-3.1829-3.4299-1.7289c-2.6742,2.1853-4.9587,1.5679-6.8191-0.6439
		c-2.084-2.4776-4.2267-5.122-3.1964-8.8553c0.8688-3.1478,3.7144-3.5656,6.1101-4.2129c3.6678-0.9911,5.0162-3.094,4.4825-6.7191
		c-0.2074-1.4097-0.1213-2.8646-0.3539-4.2682c-1.7507-10.561-3.5179-21.1196-5.3418-31.6681
		c-0.9821-5.6804-1.024-5.5396-6.9181-4.9627c-16.5613,1.6212-33.1188,3.3278-49.7709,3.7616
		c-1.1901,0.0309-2.3786,0.121-3.5681,0.1791c-3.8036,0.1854-6.227,1.8193-6.5696,5.9242c-0.2965,3.5519-0.71,7.098-1.199,10.6292
		c-1.6242,11.7316-1.6547,11.9214-13.6544,11.3943c-9.0643-0.3983-18.0247-0.1157-26.9994,1.2863
		c-4.0163,0.6274-7.9099,1.6075-11.8538,2.4968c-13.4268,3.0276-17.6923,0.7183-21.1688-12.1296
		c-3.6194-13.3765-1.7234-11.935-17.1559-11.093c-1.1763,0.0642-2.325,0.5665-3.5035,0.668
		c-6.1428,0.5295-12.0964,2.4321-18.377,2.1339c-4.5778-0.2173-8.9355-0.2371-12.7108-3.5528
		c-3.9012-3.4261-6.1146-8.4889-7.0133-12.6163c-1.2881-5.9161-2.6056-11.9211-3.714-17.917
		c-0.8217-4.4449-2.9121-6.6567-6.566-8.416c-7.0734-3.406-14.5162-6.3204-20.9472-10.6995
		c-5.3929-3.6722-10.3343-4.692-16.4776-3.2175c-4.0923,0.9819-8.5193,0.6716-10.6567,5.4339
		c-0.3141,0.7-1.5178,1.2882-2.3802,1.4042c-3.5637,0.4789-3.7731,2.9083-3.7111,5.7128
		c0.1199,5.4233,0.7617,10.6249,2.0446,16.0206c1.1237,4.7259-2.9802,10.1945-2.0134,15.7891
		c0.2826,1.6357,0.3104,3.3199,0.3892,4.985c0.09,1.9014,0.454,3.8741,0.0966,5.6978c-1.6888,8.6169,1.2065,16.4945,3.7607,24.4011
		c2.4159,7.4785,5.4842,14.7406,9.5128,21.4788c2.3605,3.9482,2.4778,8.8895,5.3942,12.34
		c8.3821,9.9174,11.1293,22.3231,15.5838,33.9741c1.9257,5.0369,1.8517,10.3563,0.7432,15.5239
		c-1.1288,5.2617-0.9056,10.3969,0.1348,15.5785c1.1364,5.6597,0.1881,11.038-3.0848,15.6881
		c-2.1252,3.0193-2.062,5.1213-0.0073,8.2195c4.2983,6.4807,2.8655,13.6311-3.0215,18.2869
		c-4.1747,3.3015-4.1953,3.4437-0.8448,7.6859c0.7365,0.9326,1.6522,1.745,2.2714,2.7451
		c3.1588,5.1019,1.3139,10.7716-4.3231,12.7656c-2.2074,0.781-4.6423,0.975-6.9938,1.2822
		c-11.9705,1.5641-22.9945,5.6486-33.0618,12.3047c-0.6805,0.4501-2.0489,0.4076-1.739,1.6484
		c0.1255,0.5021,1.0272,1.0116,1.6581,1.1555c7.9237,1.8071,15.871,3.4047,23.9789,1.0601
		c6.1182-1.7694,12.1493-1.6376,18.2385,0.3424c3.6827,1.1974,6.6914,3.0481,7.1341,7.0602
		c0.4267,3.8654-1.6922,6.9639-4.8218,8.9985c-1.9449,1.2645-4.3348,1.9148-6.5964,2.6085
		c-6.0136,1.8448-12.2268,1.7307-18.4253,1.6285c-6.1885-0.1022-11.7078,1.6915-16.4684,5.7078
		c-0.645,0.5443-2.0657,0.5326-1.5797,1.83c0.1655,0.442,1.1212,0.7798,1.7427,0.8298c6.6412,0.5348,13.1761,2.0172,19.8889,1.9843
		c6.4622-0.0317,12.7845,1.3187,19.0255,2.8311c4.4735,1.0841,6.6864,3.838,6.6269,7.319c-0.0654,3.824-2.5613,6.9637-6.6916,8.2858
		c-3.6777,1.1772-7.4783,1.3778-11.3094,1.2446c-8.6298-0.3-17.0711,1.1501-25.4891,2.7833
		c-1.3937,0.2704-2.9811,0.3807-4.0801,1.1415c-1.8486,1.2795-4.6932,3.0045-4.713,4.5725
		c-0.0257,2.0352,3.1093,2.2251,5.2422,2.4443c0.6929,0.0712,1.4862,0.2094,2.0223,0.6039
		c7.5659,5.5676,16.2271,4.8672,24.7549,4.0491c5.3549-0.5137,9.8229,1.5757,14.2594,3.7189
		c3.6241,1.7507,4.5788,5.2618,3.3524,9.1857c-1.4783,4.7296-5.5781,7.6488-11.7007,7.5787
		c-5.2201-0.0597-10.4637-0.1307-15.6622-1.0244c-9.9366-1.7083-18.7404,1.2104-26.7974,6.9353
		c-2.2961,1.6316-2.1453,2.8092,0.5116,3.718c3.9188,1.3408,7.7324,1.7554,11.8408,0.2777
		c5.5922-2.0114,11.3543-3.5645,17.0798-5.187c4.4223-1.2533,8.9898-1.2939,13.4828-0.6406
		c5.8721,0.8539,10.5107,5.2843,11.4006,10.4012c0.7845,4.5112-2.3649,9.776-7.822,12.4354
		c-2.7606,1.3453-5.7098,2.5319-8.7053,3.124c-8.1473,1.6107-16.3183,3.6331-24.7166,1.5491
		c-4.331-1.0748-7.9502-0.0281-10.6671,3.6326c-2.3917,3.2228-1.7465,5.1899,2.1587,5.8716
		c7.7538,1.3533,15.5403,1.9807,23.4589,1.6469c6.1799-0.2605,12.285-1.8768,18.4955-1.1171
		c4.4605,0.5457,7.428,3.2047,8.1219,6.8975c0.7432,3.9551-1.3284,7.926-5.3913,9.9028c-3.015,1.467-6.2751,2.5693-9.6005,2.5739
		c-5.4858,0.0074-10.3551,2.9231-15.8094,2.9091c-3.2235-0.0083-5.1558,3.2775-8.4706,3.4117
		c-3.649,0.1477-6.9323,1.3333-9.3707,4.3953c-1.2062,1.5145-3.0491,2.2281-5.0172,2.4691
		c-0.6616,0.0811-1.705-0.1433-1.7567,0.7435c-0.0424,0.7266,0.9456,0.6162,1.5543,0.7678
		c5.6904,1.4186,11.3459,1.068,16.9342-0.4607c6.9207-1.8933,14.0307-2.6071,21.0988-3.5939
		c4.5935-0.6415,9.0272,0.4076,13.4026,1.5403c2.8881,0.7473,5.3802,2.4337,5.8621,5.6111c0.5298,3.4937-0.5858,6.6232-3.578,8.7631
		c-1.1464,0.8198-2.459,1.5291-3.8029,1.9287c-4.3279,1.287-8.6055,2.7341-13.1496,3.2565
		c-8.5063,0.9778-17.0026,2.0725-25.4698,3.3412c-1.9968,0.2991-4.4793,0.9259-4.3984,3.8c0.0723,2.563,2.4007,2.7731,4.1436,3.0822
		c8.092,1.4348,16.1199,3.55,24.4576,2.8801c4.5707-0.3671,9.0435,0.3726,13.468,1.2826c4.6984,0.9667,7.2814,3.7136,7.4962,7.4312
		c0.265,4.5884-2.2272,8.3083-6.7001,9.7446c-4.3624,1.4006-8.8605,1.4337-13.4191,1.4821
		c-4.2317,0.0448-9.1403-1.4869-12.0766,3.6483c-0.673,1.1769-2.6375,0.8821-4.0483,0.7965
		c-1.8912-0.1145-3.7679-0.4469-5.657-0.6188c-1.1545-0.105-2.9556-0.2296-3.1086,0.8278c-0.2644,1.8265,1.6437,0.958,2.5777,1.1586
		c8.0648,1.7325,16.1329-0.4741,24.2098-0.067c2.8506,0.1436,5.7048-0.0637,8.3966,1.2551
		c4.4688,2.1893,6.3399,5.0953,5.9769,9.5542c-0.3422,4.2029-2.1526,6.462-7.1348,7.7009
		c-4.6047,1.1449-9.3538,1.6993-14.0229,2.5981c-2.1008,0.4047-5.7347-0.6771-5.4551,2.647
		c0.2013,2.3923,3.5987,1.3269,5.6033,1.5155c5.671,0.5338,11.4383,0.276,16.8723,2.5035c5.343,2.1902,7.111,4.5646,7.0916,9.4619
		c-0.0191,4.8302-2.6237,7.2843-7.0194,8.6128c-2.7095,0.8188-5.3138,2.0842-7.8226,3.4177
		c-0.9465,0.5031-2.0999,1.7705-2.0866,2.6738c0.0241,1.6321,1.754,0.8314,2.7455,1.0258c2.796,0.548,5.6498,0.8401,8.4091,1.5229
		c2.8379,0.7025,5.2764,2.1855,6.7949,4.844c3.0247,5.2957,1.2708,11.1173-4.6503,13.5283
		c-8.2592,3.363-16.9467,4.7178-25.876,3.6226c-2.1511-0.2639-4.2481-0.684-6.3222,0.1669
		c-1.7284,0.7092-3.4292,1.1581-3.3052,3.8732c0.1083,2.3713,1.5905,2.7043,3.0712,3.2128
		c5.7214,1.965,11.698,2.2507,17.6417,1.9972c5.649-0.2408,10.8574,1.4504,16.0424,3.0815
		c5.0527,1.5895,6.7817,5.6815,5.2732,10.787c-1.4026,4.7474-4.164,6.7709-10.1974,7.2761
		c-6.4818,0.5427-12.8277-0.8101-19.1512-1.8275c-4.5037-0.7245-8.452-0.7701-11.6254,3.045
		c-0.4068,0.4893-1.6786,0.7017-1.6694,1.0162c0.0372,1.2596,1.2882,0.8705,2.0457,1.0703
		c9.4932,2.5059,19.2125,3.2233,28.9701,3.3237c4.3282,0.0446,8.5756,0.4581,12.6996,1.6118
		c5.0306,1.4073,7.2538,3.9615,7.2424,7.6364c-0.0139,4.5054-2.7065,7.571-7.6369,8.9459c-3.7352,1.0415-7.5314,1.0558-11.345,1
		c-6.2105-0.0908-12.3842,0.2255-18.4556,1.6499c-0.8416,0.1975-2.3638,0.6425-2.3436,0.8591
		c0.1456,1.571,1.5517,1.4504,2.6998,1.5978c0.4716,0.0604,0.9592,0.0143,1.4253,0.097c6.0835,1.0795,12.2435,1.8539,18.2279,3.3365
		c9.601,2.3784,12.3807,6.5095,11.6018,16.3429c-0.1233,1.5551-0.1693,2.844,1.3141,3.6688
		c5.8245,3.238,11.6415,6.4808,18.0046,8.6133c2.4598,0.8245,3.7235-0.3302,4.2079-2.4133c0.4252-1.8278,0.4779-3.7677,0.4951-5.66
		C866.6968,1459.5262,866.6617,1453.3322,866.6617,1447.1385z M885.4279,1443.197c0,2.2493-0.0475,2.9667,0.0098,3.6758
		c0.1295,1.6042-0.3284,3.6204,1.2516,4.5393c2.1581,1.2548,3.4769-1.0563,4.8821-2.0166
		c7.1401-4.8795,12.2071-11.9425,18.3422-17.8922c1.6705-1.6201,1.4576-3.1068-0.0134-4.9268
		c-3.6921-4.5677-8.524-7.4976-13.6794-9.9689c-5.4918-2.6326-9.6147-0.2971-10.2757,5.7733
		c-0.1502,1.3805,0.0801,2.8331,0.3213,4.2201c0.7714,4.4386,1.8058,8.7959-0.5133,13.2034
		C885.0459,1441.1481,885.4365,1443.0696,885.4279,1443.197z M791.226,984.8255c-0.9818,0.1158-1.7115,0.1562-1.2982,1.2425
		c1.0211,2.6845,14.4079,9.1918,16.7849,8.1797c1.2123-0.5161,0.4285-1.3148,0.0695-1.559
		C801.876,989.3511,796.5789,986.7798,791.226,984.8255z"/>
</g>
</svg>
